<?xml version="1.0" encoding="utf-8"?>
<!-- Uploaded to: SVG Repo, www.svgrepo.com, Generator: SVG Repo Mixer Tools -->
<svg width="800px" height="800px" viewBox="-4.35 0 315.234 315.234" xmlns="http://www.w3.org/2000/svg"><defs><style>.a{fill:#ffffff;}.b{fill:#c4a48a;}.c{fill:#211715;}.d{fill:#f29753;}.e{fill:#fcc56b;}</style></defs><path class="a" d="M304.418,233.661c-.017-11.951-.077-36.41-.077-45.1,0,0,0-.121.006-.356-53.9-31.01-135.061-77.919-171.922-99.254C101.212,107.006,38.394,143.3,2.052,164.181c0,10.138.074,40.174.068,49.085,33.15,19.2,119.957,69.372,173.325,100.059,37.885-21.779,99.829-57.576,128.978-74.448v-.459C304.423,237.255,304.421,235.627,304.418,233.661Z"/><path class="b" d="M131.706,89.363C100.37,107.492,38.567,143.2,2.445,163.955c27.372,15.854,126.347,73.072,172.227,99.385,33.5-19.2,106.859-61.578,129.669-74.783,0,0,0-.121.006-.356-53.9-31.01-135.061-77.919-171.922-99.254Z"/><path class="c" d="M306.418,233.661q-.017-12.1-.046-24.2c-.014-7.08-.18-14.18-.025-21.259a2,2,0,0,0-.99-1.727q-35.7-20.539-71.365-41.138-35.376-20.419-70.736-40.865-14.913-8.624-29.822-17.251a2.022,2.022,0,0,0-2.019,0Q107.654,100.968,83.881,114.7q-27.843,16.083-55.7,32.141-13.564,7.815-27.137,15.616a2.011,2.011,0,0,0-.99,1.727q0,17.326.052,34.651.008,4.278.013,8.555a38.656,38.656,0,0,0,.039,6.145c.23,1.363,1.723,1.905,2.8,2.532L5.7,217.648l6.032,3.491Q26.9,229.919,42.08,238.692q18.662,10.788,37.328,21.569Q99.25,271.719,119.1,283.169q19.078,11.005,38.164,22c5.65,3.254,11.22,6.807,17.015,9.792,1.709.88,3.314-.559,4.778-1.4l4.2-2.413q4.42-2.544,8.84-5.089,19.689-11.337,39.363-22.7,19.755-11.4,39.5-22.816,16.167-9.343,32.33-18.7c1.141-.66,2.865-1.267,3.1-2.705a34.234,34.234,0,0,0,.031-5.482c0-2.574-4-2.578-4,0q0,2.608,0,5.216l.99-1.727q-22.851,13.227-45.715,26.433-27.7,16-55.409,31.978-13.923,8.025-27.854,16.037h2.019q-36.443-20.955-72.843-41.983Q67.646,248.855,31.7,228.066,17.411,219.806,3.13,211.539l.99,1.727c.008-13.314-.041-26.628-.06-39.942q-.007-4.571-.008-9.143l-.991,1.727q25.616-14.715,51.2-29.489,27.345-15.777,54.677-31.577,12.252-7.082,24.5-14.168h-2.019q29.592,17.127,59.2,34.23,37.073,21.42,74.163,42.811,19.275,11.115,38.561,22.213l-.991-1.727c-.155,7.079.011,14.179.025,21.259q.024,12.1.046,24.2C302.422,236.234,306.422,236.239,306.418,233.661Z"/><path class="c" d="M173.07,263.206q0,20.736.072,41.472.007,4.194.01,8.389c0,2.574,4,2.578,4,0,0-13.5-.05-27-.072-40.5q-.008-4.683-.01-9.366c0-2.574-4-2.578-4,0Z"/><path class="c" d="M3.431,166.828q12.11,7.017,24.226,14.023,17.038,9.856,34.083,19.7,19.348,11.179,38.7,22.35,19.039,10.986,38.085,21.96,16.109,9.278,32.23,18.535,1.653.949,3.306,1.9c2.236,1.283,4.254-2.172,2.018-3.453q-15.582-8.935-31.146-17.9-18.829-10.842-37.647-21.7-19.458-11.228-38.91-22.465Q50.91,189.676,33.444,179.577q-12.863-7.44-25.721-14.886L5.45,163.374c-2.232-1.293-4.248,2.163-2.019,3.454Z"/><path class="c" d="M175.093,278.329q-13.441-7.707-26.865-15.444-16.377-9.43-32.745-18.877Q98.6,234.267,81.724,224.517q-15.236-8.8-30.468-17.609-11.166-6.457-22.331-12.92-.992-.576-1.985-1.15c-2.232-1.293-4.248,2.163-2.019,3.454q10.509,6.087,21.023,12.165,14.86,8.6,29.723,17.181,16.79,9.7,33.584,19.393,16.566,9.559,33.138,19.108,13.9,8.01,27.822,16l2.863,1.642c2.237,1.283,4.254-2.172,2.019-3.454Z"/><path class="c" d="M164.115,288.209q-13.019-7.465-26-15c-2.232-1.293-4.248,2.162-2.019,3.454q12.987,7.521,26,15c2.237,1.283,4.254-2.172,2.019-3.454Z"/><path class="d" d="M249.423,276.288c-4.618,2.652-19.594,11.305-26.406,15.225-6.573-3.775-18.231-10.493-26.936-15.516,8.226-4.732,17.274-9.943,26.426-15.226C231.441,265.929,243.172,272.7,249.423,276.288Z"/><path class="c" d="M196.081,278h.01l-1.009-.274q12.546,7.255,25.113,14.476a8.054,8.054,0,0,0,2.556,1.279c1,.134,1.928-.613,2.756-1.09l4.73-2.727,10.752-6.2q4.72-2.724,9.443-5.442a2.019,2.019,0,0,0,0-3.454q-13.471-7.734-26.915-15.517c-2.234-1.29-4.25,2.166-2.019,3.454q13.452,7.767,26.915,15.517v-3.454q-13.215,7.592-26.4,15.225h2.018q-6.6-3.792-13.2-7.6l-7.4-4.265-3.672-2.12c-1.027-.594-2.463-1.809-3.677-1.809-2.574,0-2.578,4,0,4Z"/><path class="c" d="M286.81,221.323q-18.458,10.689-36.931,21.348-24.841,14.343-49.7,28.659-12.856,7.4-25.721,14.785c-2.234,1.279-.221,4.736,2.019,3.454q23.758-13.6,47.456-27.312,23.481-13.536,46.948-27.1,8.974-5.187,17.947-10.381c2.227-1.29.215-4.748-2.019-3.454Z"/><path class="c" d="M175.9,264.941q26.069-14.94,52.086-29.973,28.068-16.185,56.119-32.4,10.623-6.139,21.243-12.285c2.227-1.289.215-4.747-2.019-3.454q-22.163,12.829-44.342,25.629-29.14,16.827-58.3,33.622-13.4,7.713-26.807,15.406c-2.233,1.28-.221,4.737,2.019,3.454Z"/><path class="a" d="M262.249,160.349c-.013-8.922-.058-27.181-.058-33.672,0,0,0-.09.005-.266-40.238-23.15-100.831-58.17-128.349-74.1-23.3,13.482-70.2,40.58-97.331,56.166,0,7.568.056,29.992.051,36.645,24.749,14.33,89.555,51.79,129.4,74.7,28.284-16.259,74.528-42.983,96.289-55.579V163.9C262.252,163.033,262.251,161.817,262.249,160.349Z"/><path class="d" d="M132.1,53.323c-23.831,13.786-69.115,39.95-95.585,55.156,0,7.568.056,29.992.051,36.645,10.763,6.232,29.1,16.839,49.67,28.721-.015-9.132-.054-29.307-.058-36.983,41.833-24.166,77.077-44.545,96.955-56.052-19.693-11.377-37.516-21.684-49.287-28.5Z"/><path class="c" d="M264.249,160.349c-.017-11.3-.3-22.637-.053-33.938a2,2,0,0,0-.991-1.727q-26.644-15.33-53.265-30.7-26.406-15.242-52.8-30.5Q146,57.032,134.856,50.586a2.022,2.022,0,0,0-2.019,0Q115.073,60.864,97.3,71.129,76.566,83.1,55.822,95.061q-10.155,5.851-20.315,11.691a2.013,2.013,0,0,0-.991,1.727q0,13.087.04,26.174.006,3.168.009,6.336c0,1.423-.307,3.282.074,4.666.407,1.478,3.19,2.51,4.45,3.24l4.6,2.664q25.283,14.63,50.579,29.237,29.014,16.757,58.045,33.482l6.622,3.812,3.049,1.754a24.646,24.646,0,0,0,3.205,1.806c1.32.511,2.554-.546,3.655-1.179l3.327-1.913,6.727-3.873q14.649-8.436,29.29-16.889,26.814-15.475,53.612-30.981c1.092-.633,2.346-1.126,2.448-2.571.091-1.284,0-2.608,0-3.9,0-2.573-4-2.578-4,0q0,1.949,0,3.9l.991-1.727q-17.022,9.852-34.054,19.69-20.719,11.97-41.45,23.922-10.391,5.988-20.785,11.967h2.019q-27.173-15.625-54.314-31.3-26.819-15.48-53.624-30.981Q48.3,149.607,37.577,143.4l.99,1.727c.006-9.912-.03-19.823-.045-29.735q0-3.454-.006-6.91l-.99,1.727q19.149-11,38.273-22.046,20.362-11.748,40.713-23.513,9.174-5.3,18.344-10.607h-2.019q22.086,12.783,44.184,25.548,27.671,15.989,55.355,31.954,14.4,8.3,28.81,16.6l-.99-1.727c-.248,11.3.036,22.635.053,33.938C260.253,162.923,264.253,162.928,264.249,160.349Z"/><path class="c" d="M163.684,182.407c0,8.463.06,16.926.061,25.39,0,2.574,4,2.578,4,0,0-8.464-.06-16.927-.061-25.39,0-2.574-4-2.579-4,0Z"/><path class="c" d="M167.078,181.171q-22.767-13.055-45.486-26.189-24.511-14.143-49.009-28.31-9.279-5.365-18.555-10.736c-2.231-1.293-4.248,2.162-2.019,3.453Q71.364,130.6,90.732,141.783q25.449,14.7,50.913,29.378,11.7,6.741,23.414,13.463c2.237,1.283,4.254-2.172,2.019-3.453Z"/><path class="c" d="M166.56,184.139q16.453-9.429,32.875-18.917,17.652-10.179,35.295-20.377,6.756-3.9,13.509-7.812c2.228-1.29.216-4.748-2.018-3.454q-13.989,8.1-27.988,16.176-18.321,10.579-36.655,21.14-8.516,4.9-17.037,9.79c-2.233,1.28-.22,4.738,2.019,3.454Z"/><path class="c" d="M87.3,138.522q21.956-12.682,43.907-25.371,17.827-10.3,35.652-20.615,7.624-4.41,15.247-8.823c2.227-1.289.216-4.747-2.019-3.454Q165.348,88.794,150.6,97.32q-19.836,11.471-39.675,22.935l-25.64,14.813c-2.229,1.288-.217,4.746,2.018,3.454Z"/><path class="c" d="M84.174,136.845c.013,11.342.061,22.685.062,34.028,0,2.574,4,2.578,4,0,0-11.343-.049-22.686-.062-34.028,0-2.574-4-2.579-4,0Z"/><path class="a" d="M92.631,198.869a7.359,7.359,0,0,1,1.429-6.02,18.158,18.158,0,0,1,5.436-4.375c2.1,1.644,10.632,1.962,16.738.07a2.155,2.155,0,0,0,.583-.281c.075.712.123,1.153.123,1.153.635,5.8-2.878,8.132-5.108,9.459a33.619,33.619,0,0,1-8.5,3.578A13.9,13.9,0,0,1,97.78,203a6.453,6.453,0,0,1-4.623-2.85A4.975,4.975,0,0,1,92.631,198.869Z"/><path class="a" d="M74.768,186.3a8.013,8.013,0,0,1,1.143-2.133,19.283,19.283,0,0,1,5.892-4.614,9.908,9.908,0,0,1,3.808-1.581,8.118,8.118,0,0,0,1.708.628c3.715.907,7.706-.432,11.2-1.208.075,2.19.191,4.379.39,6.61l-1.569.259c.117,2.5-2.1,4.451-4.252,5.73a32.5,32.5,0,0,1-8.218,3.459,13.348,13.348,0,0,1-5.363.52,6.2,6.2,0,0,1-4.469-2.752A5.834,5.834,0,0,1,74.768,186.3Z"/><path class="b" d="M147.461,137.6a15.793,15.793,0,0,1-1.6,6.165c-1.986,3.9-5.818,6.569-9.853,8.269s-4.613,1.258-8.788,2.575c-3.255,1.028-6.663,2.507-8.058,5.8a19.236,19.236,0,0,0-1.031,5.231c-.3,6.748-.246,13.766-.33,20.711a2.279,2.279,0,0,1-1.57,2.19,32.153,32.153,0,0,1-14.655.781,2.925,2.925,0,0,1-1.3-.873,3.95,3.95,0,0,1-1.1-1.831c-.376-3.152-.557-6.188-.664-9.228-3.493.776-7.485,2.116-11.2,1.209-2.583-.63-5.005-2.6-5.4-5.229L81.59,171.2c-.577-10.62-1.154-9.283-1.73-19.9-.194-3.573-.35-7.341,1.282-10.526a17.826,17.826,0,0,1,5.664-5.909,69.03,69.03,0,0,1,14.464-8.107S140.778,136.235,147.461,137.6Z"/><path class="a" d="M107.251,66.2a23.034,23.034,0,0,0,5.485,16.041,19.877,19.877,0,0,0,27.919,2.022,11.488,11.488,0,0,0,7.635-2.39,7.284,7.284,0,0,0,2.771-6.5,5.294,5.294,0,0,0-3.085-3.9,18.98,18.98,0,0,0-6.568-22.174c-8.9-6.321-21.474-5.451-28.785,2.866A22.461,22.461,0,0,0,107.251,66.2Z"/><path class="a" d="M139.38,141.158c2.3-1.288,5.263-2.738,8.123-4.452,4.746-2.84,9.258-6.429,10.191-11.246a20.126,20.126,0,0,0-.03-6.288c-.913-7.372-2.657-16.782-7.251-22.847-2.8-3.711-7.22-8.5-11.53-10.708,0,0-7.477-3.62-14.741-4.094-11.662-.76-17.63,4.211-17.63,4.211a35.256,35.256,0,0,0-13.2,20.8l-2.036,11.716-.735,4.228Z"/><path class="a" d="M110.148,55.672a22.736,22.736,0,0,0-2.6,7.5,38.071,38.071,0,0,0,15.638-1.885,1.083,1.083,0,0,1,.861.074c.63.355-.131,1.733-.487,2.363,2.24.631,7.725-.4,10.149-1.732,1.347,3.276,2.723,4.983,5.365,6.22l7.092,2.825a5.048,5.048,0,0,1,1.812.445,18.992,18.992,0,0,0-6.573-22.177c-8.9-6.321-21.474-5.451-28.785,2.866A20.56,20.56,0,0,0,110.148,55.672Z"/><path class="c" d="M114.94,189.416a7.173,7.173,0,0,1-2.6,6.744,27.806,27.806,0,0,1-9.546,4.365c-2.774.734-8.287,1.217-8.341-3.036-.048-3.8,3.874-6,6.706-7.677,2.215-1.308.2-4.768-2.019-3.454-3.347,1.979-6.708,4.195-8.125,8a7.646,7.646,0,0,0,3.415,9.613c3.843,2.013,8.374.934,12.235-.467a28.591,28.591,0,0,0,8.716-4.684,10.7,10.7,0,0,0,3.558-9.4,2.054,2.054,0,0,0-2-2,2.014,2.014,0,0,0-2,2Z"/><path class="c" d="M84.813,176.083a16.007,16.007,0,0,0-4.947,2.3,23.828,23.828,0,0,0-4.18,3.047c-2.462,2.346-4.081,6.009-2.991,9.4,1.151,3.586,4.914,5.327,8.474,5.234,3.839-.1,7.774-1.632,11.153-3.361,3.325-1.7,7.049-4.282,7.021-8.44-.017-2.573-4.018-2.578-4,0,.02,2.939-4.316,4.71-6.506,5.691a29.293,29.293,0,0,1-4.9,1.674,8.87,8.87,0,0,1-5.218.092c-2.89-1.085-2.818-4.228-1.172-6.419a13.333,13.333,0,0,1,3.723-3.089,14.624,14.624,0,0,1,4.607-2.272c2.52-.513,1.454-4.37-1.063-3.857Z"/><path class="c" d="M100.738,124.83A70.434,70.434,0,0,0,84.8,133.885a17.465,17.465,0,0,0-5.745,6.655,20.213,20.213,0,0,0-1.288,8.816c.145,4.315.56,8.6,1.078,12.882.468,3.871.445,7.814,1.139,11.65a8.573,8.573,0,0,0,5.239,6.095c3.36,1.444,7.061.907,10.516.126,2.51-.568,1.448-4.425-1.063-3.857-3.733.844-10.033,1.5-10.863-3.615-.548-3.376-.543-6.857-.955-10.287-.432-3.6-.787-7.185-.987-10.805a26.637,26.637,0,0,1,.258-7.65,11.423,11.423,0,0,1,4.123-6.085,59.884,59.884,0,0,1,15.547-9.123,2.067,2.067,0,0,0,1.4-2.461,2.012,2.012,0,0,0-2.46-1.4Z"/><path class="c" d="M100.323,144.116c-3.427,2.382-4.287,6.117-4.349,10.043-.063,3.982.149,7.963.273,11.942.163,5.219.14,10.447.49,15.659.162,2.415-.016,5.366,1.518,7.367,1.47,1.92,3.274,2.323,5.555,2.563a32.691,32.691,0,0,0,6.583-.023,25.476,25.476,0,0,0,6.682-1.313c2.61-1.017,2.724-3.519,2.747-5.939.027-2.75.037-5.5.064-8.248.026-2.719.067-5.439.157-8.157a21.132,21.132,0,0,1,.869-6.581c1.335-3.616,6.074-4.806,9.41-5.611,4.326-1.044,8.49-2.4,12.092-5.128a17.661,17.661,0,0,0,7.089-13.984c.1-2.575-3.9-2.57-4,0a13.521,13.521,0,0,1-5.209,10.605,24.277,24.277,0,0,1-9.661,4.338c-3.565.792-7.352,1.8-10.27,4.1-3.241,2.55-4.041,6.447-4.248,10.373-.263,4.957-.232,9.935-.266,14.9q-.012,1.821-.029,3.641a6.473,6.473,0,0,1-.019,1.7c-.113.321-.066.2-.277.316a10.29,10.29,0,0,1-2.864.679,29.023,29.023,0,0,1-3.068.386,32,32,0,0,1-5.782-.046,4.833,4.833,0,0,1-1.833-.38c-.931-.554-.906-1.627-1-2.559-.458-4.709-.531-9.44-.625-14.167-.09-4.491-.319-8.977-.379-13.469-.022-1.69-.05-3.4.08-5.083.011-.139.022-.279.036-.419.041-.4-.026.122.011-.066a9.215,9.215,0,0,1,.433-1.563,5.222,5.222,0,0,1,1.8-2.415c2.1-1.459.1-4.928-2.018-3.453Z"/><path class="c" d="M105.5,84.007A37.579,37.579,0,0,0,91.386,106c-.535,2.511,3.32,3.584,3.857,1.063a33.437,33.437,0,0,1,12.278-19.6,2.064,2.064,0,0,0,.718-2.736,2.013,2.013,0,0,0-2.736-.718Z"/><path class="a" d="M93.232,126.753c-2.224-1.387-3.149-3.73-3.512-6.217-.407-2.788.07-6.337,4.126-7.351a5.778,5.778,0,0,1,4.226.789,7.919,7.919,0,0,1,3.891,7.682c-.274,3.3-3.391,6.336-6.673,5.857A5.3,5.3,0,0,1,93.232,126.753Z"/><path class="c" d="M94.241,125.026a4.789,4.789,0,0,1-1.2-1.091c.179.224-.081-.121-.118-.177q-.142-.215-.27-.438c-.068-.12-.133-.241-.2-.364,0,0-.247-.563-.135-.281a10.884,10.884,0,0,1-.527-1.825c-.036-.175-.068-.35-.1-.527-.023-.136-.076-.619-.019-.083-.026-.253-.052-.5-.065-.759a11.088,11.088,0,0,1,.031-1.4c.028-.375,0,0-.01.067.026-.127.046-.256.074-.383.063-.281.153-.548.242-.821-.146.45.086-.167.161-.3s.481-.637.185-.309a7.33,7.33,0,0,1,.518-.525c.232-.209-.39.224.072-.053.155-.092.3-.193.464-.279.11-.059.224-.117.339-.167-.287.125.028,0,.076-.018a8.126,8.126,0,0,1,.907-.24c-.447.076.185.012.35.015s.33.012.494.03c.141.014.135.014-.017,0,.106.018.21.041.314.067a4.1,4.1,0,0,1,1.6.774c.023.016.3.226.1.065.108.083.212.172.315.262a8.939,8.939,0,0,1,.78.765,5.348,5.348,0,0,1,1.266,2.531c-.007-.033.112.588.068.309s.034.362.031.326a8.924,8.924,0,0,1,.019.925c-.005.178-.014.355-.029.532.007-.087.073-.34-.01.072a8.048,8.048,0,0,1-.268.979c-.2.6.086-.15-.078.179-.091.184-.187.363-.292.539a2.539,2.539,0,0,1-.474.661,6.633,6.633,0,0,1-.73.7c.217-.177-.04.027-.076.05-.169.108-.335.218-.51.314a3.428,3.428,0,0,1-1.436.41,3.112,3.112,0,0,1-1.848-.536,2,2,0,0,0-2.019,3.454c3.7,2.2,8,.706,10.326-2.693a9.511,9.511,0,0,0-.039-10.192c-1.981-3.046-5.7-5.311-9.4-4.283a7.481,7.481,0,0,0-5.485,7.081c-.247,3.835,1.314,7.961,4.6,10.087a2,2,0,0,0,2.019-3.454Z"/><path class="c" d="M106.094,100.363v22.294c0,2.573,4,2.578,4,0V100.363c0-2.573-4-2.578-4,0Z"/><path class="a" d="M107.4,126.449c-6.151,1.042-12.429,3.442-21.5,4.947,5.591,2.7,16.106,7.872,26.161,12.9,8.737-3.557,11.224-4.177,16.692-6.274C119.605,133.3,107.418,126.446,107.4,126.449Z"/><path class="c" d="M106.869,124.52c-7.252,1.256-14.23,3.722-21.5,4.948-1.664.28-1.971,2.935-.477,3.655,5.911,2.852,11.8,5.759,17.674,8.675q2.648,1.314,5.291,2.632c.924.461,1.843.932,2.771,1.383a3.157,3.157,0,0,0,3.079-.036q4.137-1.668,8.332-3.189c2.418-.87,4.845-1.716,7.246-2.634,1.479-.566,2.138-2.8.478-3.656-4.738-2.449-9.427-4.992-14.1-7.56-2.408-1.324-4.776-2.823-7.252-4.016-2.309-1.113-4.34,2.335-2.019,3.454,2.476,1.193,4.844,2.692,7.252,4.016,4.674,2.568,9.363,5.111,14.1,7.56l.478-3.655c-5.555,2.124-11.178,4.033-16.691,6.274l1.541.2c-8.7-4.35-17.4-8.678-26.161-12.9l-.478,3.656c7.27-1.226,14.247-3.691,21.5-4.948a2.016,2.016,0,0,0,1.4-2.46A2.046,2.046,0,0,0,106.869,124.52Z"/><path class="a" d="M123.505,135.711c.59-4.779,5.592-8.765,12.015-6,.97,2.982,2.655,7.49,3.691,11.258-1.412,1.142-2.633,2.134-2.633,2.134-2.067,2.494-6.63,2.045-9.112.535A8.248,8.248,0,0,1,123.505,135.711Z"/><path class="c" d="M134.828,127.328a10.878,10.878,0,0,0-8.11.606,9.934,9.934,0,0,0-4.664,5.356c-1.98,5.2,1.151,11.056,6.246,12.922,3.117,1.141,7.38.975,9.692-1.7a2.049,2.049,0,0,0,0-2.828,2.018,2.018,0,0,0-2.828,0c-.1.111-.2.212-.3.321-.066.074-.369.316-.058.08a5.244,5.244,0,0,1-.665.405c-.1.053-.449.166-.085.043-.113.038-.223.078-.337.112a6.626,6.626,0,0,1-.88.2c.4-.064,0,0-.107,0-.155.006-.309.018-.464.021-.281,0-.56-.014-.841-.026-.1,0-.509-.051-.119,0-.123-.017-.246-.038-.368-.061a9.5,9.5,0,0,1-.984-.233c-.258-.075-.509-.164-.76-.257.385.143-.264-.127-.372-.185a6.581,6.581,0,0,1-.663-.416c-.487-.338.161.14-.106-.082-.138-.114-.274-.23-.406-.35-.192-.175-.378-.357-.555-.546-.076-.082-.151-.165-.225-.25,0,0-.343-.419-.156-.179s-.129-.184-.131-.187c-.06-.087-.119-.175-.175-.264a7.953,7.953,0,0,1-.419-.741c-.057-.113-.109-.227-.161-.342.027.061.144.4.032.063-.076-.233-.16-.461-.224-.7-.05-.187-.09-.375-.129-.564-.007-.036-.075-.5-.031-.157.043.331-.01-.163-.014-.228a10.554,10.554,0,0,1,.027-1.331c-.026.449-.011.068.033-.155a8.044,8.044,0,0,1,.2-.805c.054-.176.124-.346.182-.521.14-.425-.164.268-.012.033.06-.094.1-.211.151-.311q.142-.276.306-.541c.071-.115.548-.764.2-.332a8.291,8.291,0,0,1,.849-.919c.075-.069.556-.463.334-.294-.261.2.115-.077.139-.093.119-.077.236-.157.358-.231.2-.123.414-.238.628-.342.025-.012.46-.2.158-.077-.285.118.182-.063.24-.082a7.626,7.626,0,0,1,.788-.226c.176-.041.871-.13.375-.084a12.728,12.728,0,0,1,1.779-.018c.086,0,.392.047-.023-.011.174.024.347.055.519.089.359.071.712.165,1.063.27a2,2,0,1,0,1.063-3.857Z"/><path class="c" d="M140.952,113.3c-.076-.534-.03-.233,0,.079.022.262.043.523.062.785.053.749.093,1.5.128,2.249.075,1.641.13,3.288.091,4.932-.007.321-.018.643-.039.964-.012.187-.024.9-.022.364,0,.529-.181,0,.074-.043-.281.052-.819.627-1.112.863-2.011,1.624-3.965,3.316-5.98,4.934a1.945,1.945,0,0,0-.514,1.946c1.249,3.789,2.662,7.524,3.716,11.376a2.023,2.023,0,0,0,2.938,1.195c8.293-4.639,19.882-9.366,19.636-20.62a65.372,65.372,0,0,0-2.318-14.635,35.353,35.353,0,0,0-5.68-12.653c-3.28-4.3-7.191-8.592-12.034-11.146-2.276-1.2-4.3,2.251-2.019,3.454,3.864,2.038,7.016,5.321,9.762,8.665a30.482,30.482,0,0,1,5.578,10.824,74.983,74.983,0,0,1,2.479,12.581c.286,2.381.512,4.948-.422,7.222a13.139,13.139,0,0,1-3.494,4.572c-3.931,3.564-8.923,5.718-13.507,8.282l2.938,1.2c-1.054-3.852-2.467-7.588-3.716-11.377l-.515,1.946c2.155-1.73,4.238-3.549,6.4-5.27,1.5-1.191,1.765-2.354,1.838-4.189a53.692,53.692,0,0,0-.406-9.56,2.013,2.013,0,0,0-2.46-1.4,2.054,2.054,0,0,0-1.4,2.461Z"/><path class="c" d="M150.217,71.166a21.143,21.143,0,0,0-7.006-22.991A24.253,24.253,0,0,0,119.6,44.867c-8.2,3.365-13.342,11.021-14.234,19.728a24.628,24.628,0,0,0,10.012,22.638c8.186,5.717,20.023,4.711,27.263-2.074,1.883-1.764-.95-4.588-2.828-2.828a18.21,18.21,0,0,1-20.042,2.862c-6.732-3.362-10.491-10.586-10.532-17.961-.039-7.089,3.334-13.988,9.583-17.57a20.1,20.1,0,0,1,19.62.129A17.181,17.181,0,0,1,146.36,70.1c-.792,2.456,3.068,3.507,3.857,1.064Z"/><path class="c" d="M146.169,73.039c.471.033-.219-.087.2.022.178.047.358.084.534.141.1.033.51.228.207.073.165.084.329.17.486.267.072.045.464.329.2.117a5.192,5.192,0,0,1,.412.373,4.848,4.848,0,0,1,.372.413c-.234-.3.072.134.113.2a4.622,4.622,0,0,1,.26.492c-.159-.356.035.139.058.22a4.123,4.123,0,0,1,.123.55c-.057-.395-.006.159,0,.242,0,.2-.009.39-.02.585-.024.447.068-.153-.042.247-.089.326-.263.956-.321,1.091a6.862,6.862,0,0,1-1.064,1.637,5.886,5.886,0,0,1-1.734,1.338,7.976,7.976,0,0,1-2.148.885,11.789,11.789,0,0,1-1.275.283q-.213.033,0,0c-.106.012-.212.023-.318.031-.245.021-.49.032-.735.038a2,2,0,0,0,0,4c4.771-.117,9.592-2.7,11.213-7.38A7.458,7.458,0,0,0,152,72.394a7.567,7.567,0,0,0-5.827-3.355,2.01,2.01,0,0,0-2,2,2.049,2.049,0,0,0,2,2Z"/><path class="c" d="M119.867,73.478a3.162,3.162,0,0,1-1.29,2.382,2.459,2.459,0,0,1-1.811.343,2.76,2.76,0,0,1-1.993-1.5,3.228,3.228,0,0,1,.8-3.714,2.555,2.555,0,0,1,3.474.191A2.845,2.845,0,0,1,119.867,73.478Z"/><path class="c" d="M132.026,75.962a3.172,3.172,0,0,1-1.29,2.382,2.464,2.464,0,0,1-1.812.342,2.756,2.756,0,0,1-1.992-1.5,3.228,3.228,0,0,1,.8-3.714,2.554,2.554,0,0,1,3.473.191A2.85,2.85,0,0,1,132.026,75.962Z"/><path class="c" d="M131.784,62.525a17.412,17.412,0,0,0,2.686,4.728,10.639,10.639,0,0,0,3.6,2.687,2.151,2.151,0,0,0,1.541.2,2,2,0,0,0,.477-3.655,10.485,10.485,0,0,1-1.914-1.148l.4.313a8.786,8.786,0,0,1-1.543-1.558l.312.4a15.01,15.01,0,0,1-1.787-3.229l.2.478c-.04-.095-.08-.19-.119-.285a2.2,2.2,0,0,0-.919-1.2,2,2,0,0,0-2.737.717,1.929,1.929,0,0,0-.2,1.541Z"/><path class="c" d="M132.7,60.267c-2.283,1.2-6.187,2.135-8.608,1.53l1.2,2.938c.77-1.376,1.61-3.289.323-4.65-1.485-1.573-3.6-.465-5.3,0A37.782,37.782,0,0,1,108.2,61.219c-2.572-.142-2.564,3.858,0,4a43.455,43.455,0,0,0,8.119-.279c1.268-.168,2.527-.384,3.773-.675q.969-.227,1.923-.505.535-.156,1.064-.329c.142-.045.284-.092.425-.141q.42-.146.01,0l-.882-.514.149.135-.514-.883c-.2-.478.174-.436-.054-.035-.133.236-.248.484-.381.721a2.022,2.022,0,0,0,1.2,2.938,14.539,14.539,0,0,0,5.9-.1,19.353,19.353,0,0,0,5.794-1.833c2.278-1.2.259-4.655-2.019-3.454Z"/><path class="e" d="M45.39,49.324a23.922,23.922,0,0,0,9.327.761c1.78-.123,7.174-.586,8.1-.618a4.56,4.56,0,0,1,1.333-.023c.344.117.385.4.47.737a12.908,12.908,0,0,1,.142,4.483,18.568,18.568,0,0,1-1.331,5.618,14.826,14.826,0,0,1-6.006,6.5.886.886,0,0,1-1.08-.082,26.349,26.349,0,0,1-2.223-1.622l-1.266-.952a10.2,10.2,0,0,0-1.282-.952c.035.227,0,.453.017.682l.046.763.095,1.578.092,1.527c.015.255.029.509.046.764a1.936,1.936,0,0,1-.019.708c-.167.461-1.077.774-1.5.977a10.759,10.759,0,0,1-3.916.947,16.036,16.036,0,0,1-6.038-.723,16.356,16.356,0,0,1-4.375-2.145A10.492,10.492,0,0,1,34.2,66.665c-.533-.6-1.028-1.005-.369-1.729,3.963-4.356,8.325-9.251,10.324-14.863,0,0,.274-.856.31-1.047C44.647,49.09,45.39,49.324,45.39,49.324Z"/><path class="c" d="M44.336,48.908a69.041,69.041,0,0,1-5.153-9.086,54.5,54.5,0,0,1-1.814-5.343.023.023,0,0,1,.01-.025,1.858,1.858,0,0,1,1.046-.2.021.021,0,0,1,.02.019,24.763,24.763,0,0,0,1.2,4.491c.607,1.68,3.345,8.277,4.691,10.145"/><path class="c" d="M46.063,47.9a59.333,59.333,0,0,1-4.191-7.114c-.217-.419-.431-.839-.637-1.264-.077-.159-.149-.32-.226-.479-.042-.086-.14-.321.023.061.205.48-.036-.1-.057-.159-.638-1.637-1.2-3.3-1.678-5v1.064l.01-.025-.919,1.2c-.144.07-.356.068.037.072l-1.415-.586.021.019-.586-1.414a30.89,30.89,0,0,0,2.581,8.276,38.85,38.85,0,0,0,3.583,7.369,2.056,2.056,0,0,0,2.737.718,2.017,2.017,0,0,0,.717-2.737,31.084,31.084,0,0,1-2.772-5.482q-.184-.418-.365-.838c-.047-.109-.094-.219-.14-.328,0,.01-.221-.521-.1-.243s-.1-.231-.094-.227l-.125-.3c-.114-.277-.228-.555-.34-.833-.306-.761-.6-1.526-.853-2.307-.216-.664-.414-1.334-.584-2.011-.076-.3-.147-.6-.206-.907,0,0-.106-.594-.05-.255q.059.423-.057-.427a1.5,1.5,0,0,0-.358-.68,2.649,2.649,0,0,0-2.974-.627c-1.491.471-1.856,1.712-1.452,3.1a39.18,39.18,0,0,0,2.645,6.912,59.934,59.934,0,0,0,4.375,7.471,2.056,2.056,0,0,0,2.737.718,2.016,2.016,0,0,0,.717-2.737Z"/><path class="c" d="M44.858,51.253c3.766,1.177,7.658,1.011,11.539.7,1.388-.109,2.776-.224,4.164-.332.548-.043,1.1-.086,1.644-.122.171-.012.342-.02.513-.032.121-.008.938.039.675-.133l-.717-.717a6.022,6.022,0,0,1,.19,2.7,21.684,21.684,0,0,1-.349,3.027A12.185,12.185,0,0,1,60.188,61.8a14.471,14.471,0,0,1-1.908,1.966,10.235,10.235,0,0,1-.952.732q-.3.2-.611.389,1.008.282.46-.017a13.837,13.837,0,0,0-2.206-1.629c-.79-.6-1.548-1.267-2.39-1.785a2.015,2.015,0,0,0-3.01,1.727,38.156,38.156,0,0,1,.277,6.022l.274-1.009c.252-.419.076-.109-.2,0-.2.076-.388.182-.585.263a9.25,9.25,0,0,1-2.1.589,13.423,13.423,0,0,1-4.725-.146,14.774,14.774,0,0,1-4.17-1.54,11.725,11.725,0,0,1-1.712-1.125,9.208,9.208,0,0,1-.742-.682c-.142-.145-.487-.721-.445-.505V66.1c.118-.457,1.291-1.4,1.616-1.767.613-.69,1.219-1.384,1.813-2.091,1.167-1.389,2.3-2.817,3.336-4.3A25.989,25.989,0,0,0,46.4,49.557l-2.461,1.4c.306.1.614.2.922.3,2.46.779,3.513-3.082,1.064-3.857-.308-.1-.616-.2-.922-.3a2.02,2.02,0,0,0-2.461,1.4A24.227,24.227,0,0,1,38.26,56.62c-1.036,1.421-2.169,2.77-3.325,4.094-1.049,1.2-2.882,2.607-3.307,4.177-.484,1.79,1.077,3.263,2.332,4.3a17.768,17.768,0,0,0,5.064,2.85,16.454,16.454,0,0,0,11.444.253c1.746-.693,3.414-1.484,3.411-3.619,0-1.823-.22-3.671-.308-5.492L50.562,64.9c1.5.925,2.8,2.2,4.259,3.193,1.762,1.2,3.18.818,4.831-.363a16.3,16.3,0,0,0,6.431-9.021,25.1,25.1,0,0,0,.8-5.848c.033-1.76-.043-4.475-1.964-5.249a8.086,8.086,0,0,0-3.449-.061c-1.306.1-2.611.2-3.916.31-3.9.313-7.835.718-11.631-.469C43.459,46.626,42.406,50.486,44.858,51.253Z"/><path class="c" d="M208.234,102.955a111.153,111.153,0,0,0,8.875-14.3,88,88,0,0,0,3.261-8.487.036.036,0,0,0-.015-.041,3,3,0,0,0-1.671-.391.034.034,0,0,0-.033.03,39.885,39.885,0,0,1-2.219,7.154c-1.083,2.666-5.912,13.114-8.2,16.037"/><path class="c" d="M209.961,103.964a77.235,77.235,0,0,0,11.382-20.483c.394-1.078,1.266-2.689.955-3.847-.381-1.422-2.137-1.884-3.431-1.894-1.517-.012-2.01.967-2.285,2.253a30.119,30.119,0,0,1-.888,3.133c-.335,1.016-.7,2.024-1.092,3.017l-.144.354c-.171.428.189-.435-.018.044q-.174.408-.353.813c-.668,1.514-1.365,3.016-2.077,4.51-1.62,3.395-3.2,7.08-5.5,10.082a2.012,2.012,0,0,0,.717,2.736,2.051,2.051,0,0,0,2.737-.718c2.577-3.357,4.315-7.534,6.1-11.343,1.829-3.906,3.843-8.036,4.519-12.326l-.514.883.034-.03-1.415.586a1.247,1.247,0,0,1,.662.118l-.919-1.2.014.04V79.634a73.95,73.95,0,0,1-11.934,22.312,2.011,2.011,0,0,0,.717,2.736,2.051,2.051,0,0,0,2.737-.718Z"/><path class="e" d="M206.507,103.557c-4.991,1.43-9.972,1.186-15.066.632-2.858-.311-11.515-1.4-13-1.509a7.33,7.33,0,0,0-2.146-.123c-.561.166-.645.616-.8,1.157a20.842,20.842,0,0,0-.513,7.21,29.92,29.92,0,0,0,1.786,9.13,23.887,23.887,0,0,0,9.257,10.854,1.423,1.423,0,0,0,1.743-.064,42.153,42.153,0,0,0,3.683-2.469l2.1-1.453a16.549,16.549,0,0,1,2.124-1.452c-.071.364-.034.731-.07,1.1l-.123,1.226-.253,2.535-.246,2.453c-.041.409-.079.818-.123,1.226a3.2,3.2,0,0,0-.015,1.142c.24.752,1.686,1.315,2.355,1.669a17.38,17.38,0,0,0,6.245,1.774,25.887,25.887,0,0,0,9.77-.781,26.337,26.337,0,0,0,7.179-3.175,16.877,16.877,0,0,0,3.024-2.447c.9-.933,1.72-1.553.705-2.761-6.1-7.266-12.816-15.424-15.679-24.588,0,0-.386-1.4-.432-1.706C207.718,103.227,206.507,103.557,206.507,103.557Z"/><path class="c" d="M205.975,101.629c-5.479,1.513-11.117.971-16.684.313-3.55-.42-7.095-.872-10.65-1.246a7.259,7.259,0,0,0-2.876-.068c-1.52.462-2.036,1.8-2.373,3.214a27.542,27.542,0,0,0-.21,9.412,25.549,25.549,0,0,0,7.5,15.98,26.619,26.619,0,0,0,3.411,2.8c1.563,1.082,2.924,1.461,4.682.535,2.819-1.484,5.107-3.876,7.906-5.374l-3.009-1.727c-.316,2.767-.511,5.561-.794,8.334a3.672,3.672,0,0,0,.823,3.189,9.817,9.817,0,0,0,2.875,1.75c5.225,2.512,11.656,2.533,17.167,1a27.787,27.787,0,0,0,7.838-3.5c1.817-1.2,5.083-3.365,5-5.863-.043-1.367-1.026-2.336-1.85-3.32q-1.353-1.615-2.686-3.25c-1.7-2.093-3.35-4.227-4.89-6.442-3.057-4.4-6.2-9.427-7.221-14.767a2.019,2.019,0,0,0-2.46-1.4c-.5.15-1,.286-1.5.423-2.48.678-1.427,4.538,1.064,3.857.5-.137,1-.273,1.5-.422l-2.46-1.4a36.77,36.77,0,0,0,4.722,11.2,94.965,94.965,0,0,0,8.418,11.773q1.065,1.313,2.15,2.609a6.464,6.464,0,0,0,1.069,1.277l.2.257-.028-.631c-.024-.015-.631.638-.615.622a19.018,19.018,0,0,1-5.889,3.9,23.647,23.647,0,0,1-14.713,1.555,16.161,16.161,0,0,1-3.543-1.314,7.224,7.224,0,0,0-1.264-.684c-.26.078.373.195.206.347a6.454,6.454,0,0,0,.1-.98c.279-2.706.465-5.431.773-8.13.182-1.6-1.807-2.37-3.009-1.727a69.847,69.847,0,0,0-6.194,4.3c-.5.342-1.022.639-1.527.968-.405.266.29.258-.064.075a7.427,7.427,0,0,1-.766-.5,20.252,20.252,0,0,1-2.6-2.176,21.421,21.421,0,0,1-6.379-13.617,23.632,23.632,0,0,1,.169-8.1,4.469,4.469,0,0,0,.211-.751l-.323.283q-.66.377,0,.3a3.49,3.49,0,0,0,1.25.159c.472.05.944.091,1.416.143,3.355.371,6.7.8,10.056,1.192,5.731.67,11.5,1.025,17.124-.529C209.517,104.8,208.464,100.942,205.975,101.629Z"/><path class="c" d="M151.42,3.94q.621.208,1.224.462l-.478-.2A16.713,16.713,0,0,1,155.8,6.337l-.405-.312q.557.433,1.075.912A2,2,0,0,0,159.3,4.109,18.869,18.869,0,0,0,152.483.083a2.014,2.014,0,0,0-2.46,1.4,2.048,2.048,0,0,0,1.4,2.461Z"/><path class="d" d="M167.728,25.332a26.277,26.277,0,0,1-7.666-6.385,20.194,20.194,0,0,1-3.5-13.71c4.72-2.545,13.8-2.58,22.119,3.546A20.567,20.567,0,0,1,186.4,19.716a15.147,15.147,0,0,1-1.264,11.819,1.065,1.065,0,0,1-1.541.44C178.7,28.647,172.178,26.994,167.728,25.332Z"/><path class="c" d="M168.738,23.605c-3.1-1.917-6.174-4.071-8-7.315A18.492,18.492,0,0,1,158.56,5.237l-.991,1.727c6.226-3.261,14.413-.511,19.722,3.271a18.708,18.708,0,0,1,6.827,8.89,15.154,15.154,0,0,1,.921,5.943,12.224,12.224,0,0,1-.585,2.892c-.231.734-.564,2.169-1.158,2.644l.882-.514q.71.32.258.046-.252-.169-.51-.332c-.344-.217-.695-.426-1.049-.628-.656-.374-1.327-.72-2.007-1.047-1.455-.7-2.953-1.316-4.463-1.886-2.692-1.016-5.449-1.842-8.147-2.839-2.418-.894-3.461,2.971-1.063,3.857,3.082,1.139,6.24,2.065,9.294,3.284a34.706,34.706,0,0,1,4.721,2.289c1.6.939,3.351,2.1,5.026.507,1.195-1.137,1.812-3.334,2.24-4.886a15.859,15.859,0,0,0,.559-5.156,20.951,20.951,0,0,0-3.413-10.057,26.761,26.761,0,0,0-17.75-11.265,22.229,22.229,0,0,0-8.87.214A11.907,11.907,0,0,0,155.55,3.51c-1.481.943-1.172,3.6-1.073,5.134a21.877,21.877,0,0,0,3.633,11c2.2,3.16,5.377,5.423,8.609,7.42C168.915,28.417,170.926,24.958,168.738,23.605Z"/></svg>