<svg width="24" height="24" viewBox="0 0 24 24" fill="none" xmlns="http://www.w3.org/2000/svg">
<path d="M3.42187 7.42187C3.28819 7.55445 3.18209 7.7122 3.10969 7.88599C3.03728 8.05979 3 8.2462 3 8.43448C3 8.62276 3.03728 8.80917 3.10969 8.98297C3.18209 9.15676 3.28819 9.3145 3.42187 9.44709L10.5529 16.5781C10.6855 16.7118 10.8432 16.8179 11.017 16.8903C11.1908 16.9627 11.3772 17 11.5655 17C11.7538 17 11.9402 16.9627 12.114 16.8903C12.2878 16.8179 12.4455 16.7118 12.5781 16.5781L19.7092 9.44709C19.8428 9.3145 19.949 9.15676 20.0214 8.98297C20.0938 8.80917 20.131 8.62276 20.131 8.43448C20.131 8.2462 20.0938 8.05979 20.0214 7.88599C19.949 7.7122 19.8428 7.55445 19.7092 7.42187C19.5766 7.28819 19.4188 7.18209 19.2451 7.10969C19.0713 7.03728 18.8848 7 18.6966 7C18.5083 7 18.3219 7.03728 18.1481 7.10969C17.9743 7.18209 17.8165 7.28819 17.684 7.42187L11.5655 13.5546L5.44709 7.42187C5.3145 7.28819 5.15676 7.18209 4.98296 7.10969C4.80917 7.03728 4.62275 7 4.43448 7C4.2462 7 4.05979 7.03728 3.88599 7.10969C3.71219 7.18209 3.55445 7.28819 3.42187 7.42187Z" fill="#1E1E1E"/>
</svg>
