<svg width="44" height="45" viewBox="0 0 44 45" fill="none" xmlns="http://www.w3.org/2000/svg">
<path d="M13 14L29.21 30.21" stroke="#1E1E1E" stroke-linecap="round" stroke-linejoin="round"/>
<path d="M19.754 20.9141C19.4737 21.2315 19.3037 21.6486 19.3037 22.1054C19.3037 23.1001 20.1101 23.9065 21.1048 23.9065C21.5616 23.9065 21.9786 23.7365 22.2962 23.4562" stroke="#1E1E1E" stroke-linecap="round" stroke-linejoin="round"/>
<path d="M16.9281 18.1075C15.4135 19.1689 14.1518 20.681 13 22.105C14.7008 24.7986 17.7565 27.5083 21.105 27.5083C22.5008 27.5083 23.8458 27.0375 25.0629 26.2933" stroke="#1E1E1E" stroke-linecap="round" stroke-linejoin="round"/>
<path d="M21.1055 16.7021C24.7153 16.7021 27.1405 19.5463 29.2105 22.1055C28.9236 22.5596 28.5984 23.0143 28.2397 23.4563" stroke="#1E1E1E" stroke-linecap="round" stroke-linejoin="round"/>
</svg>
