<svg width="24" height="24" viewBox="0 0 24 24" fill="none" xmlns="http://www.w3.org/2000/svg">
<path fill-rule="evenodd" clip-rule="evenodd" d="M9.464 2.81999C10.2566 2.44423 11.1228 2.2493 12 2.2493C12.8772 2.2493 13.7434 2.44423 14.536 2.81999L21.226 5.95799C22.28 6.44999 22.75 7.52199 22.75 8.49999C22.75 9.47799 22.28 10.55 21.227 11.043L19.75 11.735V16.625C19.75 17.878 19.122 19.088 17.978 19.722C17.226 20.138 16.238 20.639 15.198 21.038C14.171 21.432 13.034 21.75 12 21.75C10.966 21.75 9.829 21.432 8.801 21.038C7.761 20.639 6.774 20.138 6.022 19.722C4.878 19.088 4.25 17.878 4.25 16.625V11.735L2.773 11.042L2.75 11.032V14C2.75 14.1989 2.67098 14.3897 2.53033 14.5303C2.38968 14.671 2.19891 14.75 2 14.75C1.80109 14.75 1.61032 14.671 1.46967 14.5303C1.32902 14.3897 1.25 14.1989 1.25 14V8.49999C1.25 7.52199 1.721 6.44999 2.773 5.95799L9.464 2.81999ZM5.75 12.439V16.626C5.75 17.389 6.129 18.067 6.749 18.411C7.58338 18.8785 8.44873 19.2884 9.339 19.638C10.302 20.008 11.238 20.251 12 20.251C12.762 20.251 13.698 20.008 14.662 19.638C15.5523 19.2884 16.4176 18.8785 17.252 18.411C17.872 18.067 18.25 17.389 18.25 16.626V12.439L14.536 14.18C13.7434 14.5558 12.8772 14.7507 12 14.7507C11.1228 14.7507 10.2566 14.5558 9.464 14.18L5.75 12.439ZM3.41 9.68399C3.007 9.49499 2.75 9.04399 2.75 8.49999C2.75 7.95599 3.007 7.50499 3.41 7.31599L10.101 4.17899C10.6943 3.89672 11.343 3.75025 12 3.75025C12.657 3.75025 13.3057 3.89672 13.899 4.17899L20.59 7.31599C20.993 7.50499 21.25 7.95599 21.25 8.49999C21.25 9.04399 20.993 9.49499 20.59 9.68399L13.899 12.821C13.3057 13.1033 12.657 13.2497 12 13.2497C11.343 13.2497 10.6943 13.1033 10.101 12.821L3.41 9.68399Z" fill="#1E1E1E"/>
</svg>
