 <svg width="24" height="24" viewBox="0 0 24 24" fill="none" xmlns="http://www.w3.org/2000/svg">
<path d="M9.857 5.14287H14.1427C14.1427 4.57454 13.917 4.0295 13.5151 3.62764C13.1132 3.22577 12.5682 3.00001 11.9999 3.00001C11.4315 3.00001 10.8865 3.22577 10.4846 3.62764C10.0828 4.0295 9.857 4.57454 9.857 5.14287ZM8.57129 5.14287C8.57129 4.23355 8.93251 3.36148 9.57549 2.7185C10.2185 2.07552 11.0905 1.71429 11.9999 1.71429C12.9092 1.71429 13.7812 2.07552 14.4242 2.7185C15.0672 3.36148 15.4284 4.23355 15.4284 5.14287H20.7856C20.9561 5.14287 21.1196 5.2106 21.2401 5.33115C21.3607 5.45171 21.4284 5.61523 21.4284 5.78572C21.4284 5.95622 21.3607 6.11973 21.2401 6.24029C21.1196 6.36085 20.9561 6.42858 20.7856 6.42858H19.6627L18.6196 18.9454C18.5437 19.856 18.1284 20.7048 17.456 21.3235C16.7836 21.9422 15.9033 22.2857 14.9896 22.2857H9.01015C8.09643 22.2857 7.21609 21.9422 6.54372 21.3235C5.87135 20.7048 5.45604 19.856 5.38015 18.9454L4.337 6.42858H3.21415C3.04365 6.42858 2.88014 6.36085 2.75958 6.24029C2.63902 6.11973 2.57129 5.95622 2.57129 5.78572C2.57129 5.61523 2.63902 5.45171 2.75958 5.33115C2.88014 5.2106 3.04365 5.14287 3.21415 5.14287H8.57129ZM6.66157 18.8383C6.71059 19.4275 6.97925 19.9768 7.41427 20.3772C7.84929 20.7776 8.4189 20.9999 9.01015 21H14.9896C15.5808 20.9999 16.1504 20.7776 16.5854 20.3772C17.0205 19.9768 17.2891 19.4275 17.3381 18.8383L18.3736 6.42858H5.627L6.66157 18.8383ZM10.0713 9.42858C10.2418 9.42858 10.4053 9.49631 10.5259 9.61687C10.6464 9.73743 10.7141 9.90094 10.7141 10.0714V17.3572C10.7141 17.5276 10.6464 17.6912 10.5259 17.8117C10.4053 17.9323 10.2418 18 10.0713 18C9.90079 18 9.73728 17.9323 9.61672 17.8117C9.49616 17.6912 9.42843 17.5276 9.42843 17.3572V10.0714C9.42843 9.90094 9.49616 9.73743 9.61672 9.61687C9.73728 9.49631 9.90079 9.42858 10.0713 9.42858ZM14.5713 10.0714C14.5713 9.90094 14.5036 9.73743 14.383 9.61687C14.2624 9.49631 14.0989 9.42858 13.9284 9.42858C13.7579 9.42858 13.5944 9.49631 13.4739 9.61687C13.3533 9.73743 13.2856 9.90094 13.2856 10.0714V17.3572C13.2856 17.5276 13.3533 17.6912 13.4739 17.8117C13.5944 17.9323 13.7579 18 13.9284 18C14.0989 18 14.2624 17.9323 14.383 17.8117C14.5036 17.6912 14.5713 17.5276 14.5713 17.3572V10.0714Z" fill="black"/>
</svg>
