<svg width="24" height="24" viewBox="0 0 24 24" fill="none" xmlns="http://www.w3.org/2000/svg">
<path d="M16 3.43938C16.3978 3.43938 16.7794 3.59741 17.0607 3.87872C17.342 4.16002 17.5 4.54155 17.5 4.93938V18.3787C17.5 18.7765 17.342 19.1581 17.0607 19.4394C16.7794 19.7207 16.3978 19.8787 16 19.8787H7C6.60218 19.8787 6.22064 19.7207 5.93934 19.4394C5.65804 19.1581 5.5 18.7765 5.5 18.3787V4.93938C5.5 4.54155 5.65804 4.16002 5.93934 3.87872C6.22064 3.59741 6.60218 3.43938 7 3.43938H16ZM7 1.99998C6.20435 1.99998 5.44129 2.31605 4.87868 2.87866C4.31607 3.44127 4 4.20433 4 4.99998V18.3787C4 19.1744 4.31607 19.9374 4.87868 20.5C5.44129 21.0626 6.20435 21.3787 7 21.3787H16C16.7956 21.3787 17.5587 21.0626 18.1213 20.5C18.6839 19.9374 19 19.1744 19 18.3787V4.99998C19 4.20433 18.6839 3.44127 18.1213 2.87866C17.5587 2.31605 16.7956 1.99998 16 1.99998H7Z" fill="#1E1E1E"/>
<path d="M11.5 18.3787C11.8978 18.3787 12.2794 18.2207 12.5607 17.9394C12.842 17.6581 13 17.2765 13 16.8787C13 16.4809 12.842 16.0994 12.5607 15.8181C12.2794 15.5368 11.8978 15.3787 11.5 15.3787C11.1022 15.3787 10.7206 15.5368 10.4393 15.8181C10.158 16.0994 10 16.4809 10 16.8787C10 17.2765 10.158 17.6581 10.4393 17.9394C10.7206 18.2207 11.1022 18.3787 11.5 18.3787Z" fill="#1E1E1E"/>
<path d="M8 7.25H15" stroke="#1E1E1E" stroke-width="1.5" stroke-linecap="round"/>
<path d="M9 11H14.5" stroke="#1E1E1E" stroke-width="1.5" stroke-linecap="round"/>
</svg>
