<svg width="24" height="24" viewBox="0 0 24 24" fill="none" xmlns="http://www.w3.org/2000/svg">
<path d="M6.78032 2.72001C6.92077 2.86064 6.99966 3.05126 6.99966 3.25001C6.99966 3.44876 6.92077 3.63939 6.78032 3.78001L4.56032 6.00001H13.2503C14.7831 6.00001 16.2815 6.45454 17.556 7.30612C18.8305 8.1577 19.8238 9.36809 20.4104 10.7842C20.997 12.2003 21.1504 13.7586 20.8514 15.262C20.5524 16.7653 19.8143 18.1462 18.7304 19.2301C17.6465 20.3139 16.2656 21.0521 14.7623 21.3511C13.2589 21.6501 11.7006 21.4967 10.2845 20.9101C8.86839 20.3235 7.65801 19.3302 6.80643 18.0557C5.95485 16.7812 5.50032 15.2828 5.50032 13.75C5.50032 13.5511 5.57933 13.3603 5.71999 13.2197C5.86064 13.079 6.0514 13 6.25032 13C6.44923 13 6.63999 13.079 6.78065 13.2197C6.9213 13.3603 7.00032 13.5511 7.00032 13.75C7.00032 14.9861 7.36687 16.1945 8.05363 17.2223C8.74039 18.2501 9.71651 19.0512 10.8585 19.5243C12.0006 19.9973 13.2572 20.1211 14.4696 19.8799C15.682 19.6388 16.7957 19.0435 17.6697 18.1694C18.5438 17.2954 19.1391 16.1817 19.3802 14.9693C19.6214 13.7569 19.4976 12.5003 19.0246 11.3582C18.5515 10.2162 17.7504 9.24009 16.7226 8.55333C15.6948 7.86657 14.4865 7.50001 13.2503 7.50001H4.56032L6.78032 9.72001C6.854 9.78867 6.91311 9.87147 6.9541 9.96347C6.99509 10.0555 7.01713 10.1548 7.01891 10.2555C7.02068 10.3562 7.00216 10.4562 6.96444 10.5496C6.92672 10.643 6.87057 10.7278 6.79936 10.799C6.72814 10.8703 6.6433 10.9264 6.54991 10.9641C6.45653 11.0019 6.3565 11.0204 6.25579 11.0186C6.15509 11.0168 6.05578 10.9948 5.96378 10.9538C5.87178 10.9128 5.78898 10.8537 5.72032 10.78L2.22032 7.28001C2.07987 7.13939 2.00098 6.94876 2.00098 6.75001C2.00098 6.55126 2.07987 6.36064 2.22032 6.22001L5.72032 2.72001C5.86094 2.57956 6.05157 2.50067 6.25032 2.50067C6.44907 2.50067 6.63969 2.57956 6.78032 2.72001Z" fill="#1E1E1E"/>
</svg>
