<svg width="24" height="24" viewBox="0 0 24 24" fill="none" xmlns="http://www.w3.org/2000/svg">
<path fill-rule="evenodd" clip-rule="evenodd" d="M1.40332 12C1.40332 9.18955 2.51977 6.49422 4.50705 4.50693C6.49434 2.51964 9.18967 1.4032 12.0001 1.4032C14.8106 1.4032 17.5059 2.51964 19.4932 4.50693C21.4805 6.49422 22.5969 9.18955 22.5969 12C22.5969 14.8104 21.4805 17.5058 19.4932 19.4931C17.5059 21.4804 14.8106 22.5968 12.0001 22.5968C9.18967 22.5968 6.49434 21.4804 4.50705 19.4931C2.51977 17.5058 1.40332 14.8104 1.40332 12ZM12.0001 2.9232C9.5928 2.9232 7.28408 3.8795 5.58185 5.58173C3.87962 7.28396 2.92332 9.59268 2.92332 12C2.92332 14.4073 3.87962 16.716 5.58185 18.4183C7.28408 20.1205 9.5928 21.0768 12.0001 21.0768C14.4074 21.0768 16.7162 20.1205 18.4184 18.4183C20.1206 16.716 21.0769 14.4073 21.0769 12C21.0769 9.59268 20.1206 7.28396 18.4184 5.58173C16.7162 3.8795 14.4074 2.9232 12.0001 2.9232ZM13.2001 16.8C13.2001 17.1183 13.0737 17.4235 12.8486 17.6485C12.6236 17.8736 12.3184 18 12.0001 18C11.6819 18 11.3766 17.8736 11.1516 17.6485C10.9265 17.4235 10.8001 17.1183 10.8001 16.8C10.8001 16.4817 10.9265 16.1765 11.1516 15.9515C11.3766 15.7264 11.6819 15.6 12.0001 15.6C12.3184 15.6 12.6236 15.7264 12.8486 15.9515C13.0737 16.1765 13.2001 16.4817 13.2001 16.8ZM9.68012 10C9.68012 8.9152 10.6161 7.88 12.0001 7.88C13.3841 7.88 14.3201 8.9152 14.3201 10C14.3201 10.7856 13.8881 11.1872 13.1425 11.64L12.8609 11.8064C12.5476 11.978 12.2461 12.1705 11.9585 12.3824C11.5713 12.6832 11.1201 13.1712 11.1201 13.92C11.1193 14.1534 11.2112 14.3776 11.3756 14.5432C11.54 14.7088 11.7635 14.8024 11.9969 14.8032C12.2303 14.804 12.4545 14.7121 12.6201 14.5477C12.7857 14.3833 12.8793 14.1598 12.8801 13.9264C12.9238 13.8651 12.978 13.8121 13.0401 13.7696C13.2033 13.6432 13.3841 13.5392 13.6257 13.3984C13.7495 13.3269 13.8935 13.2421 14.0577 13.144C14.9121 12.624 16.0801 11.7664 16.0801 10C16.0801 7.8848 14.2961 6.12 12.0001 6.12C9.70412 6.12 7.92012 7.8848 7.92012 10C7.92012 10.2334 8.01284 10.4572 8.17787 10.6223C8.3429 10.7873 8.56673 10.88 8.80012 10.88C9.03351 10.88 9.25734 10.7873 9.42238 10.6223C9.58741 10.4572 9.68012 10.2334 9.68012 10Z" fill="#1E1E1E"/>
</svg>
