<svg width="24" height="24" viewBox="0 0 24 24" fill="none" xmlns="http://www.w3.org/2000/svg">
<path d="M6.70373 16.0935L14.6021 8.1951H7.70075C7.14921 8.1951 6.69666 7.74255 6.69666 7.19101C6.69653 7.06004 6.72222 6.93033 6.77228 6.80931C6.82234 6.68828 6.89577 6.57832 6.98838 6.48571C7.08099 6.3931 7.19095 6.31966 7.31198 6.26961C7.433 6.21955 7.56271 6.19385 7.69368 6.19399H17.0133C17.1443 6.19385 17.274 6.21955 17.3951 6.26961C17.5161 6.31966 17.626 6.3931 17.7186 6.48571C17.8113 6.57832 17.8847 6.68828 17.9347 6.80931C17.9848 6.93033 18.0105 7.06004 18.0104 7.19101V16.5107C18.0104 16.6416 17.9846 16.7713 17.9345 16.8922C17.8844 17.0132 17.8109 17.1231 17.7183 17.2157C17.6258 17.3083 17.5159 17.3817 17.3949 17.4318C17.2739 17.4819 17.1443 17.5077 17.0133 17.5077C16.8824 17.5077 16.7528 17.4819 16.6318 17.4318C16.5108 17.3817 16.4009 17.3083 16.3083 17.2157C16.2158 17.1231 16.1423 17.0132 16.0922 16.8922C16.0421 16.7713 16.0163 16.6416 16.0163 16.5107L16.0163 9.60931L8.11795 17.5077C7.72904 17.8966 7.09264 17.8966 6.70373 17.5077C6.31482 17.1188 6.31482 16.4824 6.70373 16.0935Z" fill="#1E1E1E"/>
</svg>
