<svg width="24" height="24" viewBox="0 0 24 24" fill="none" xmlns="http://www.w3.org/2000/svg">
<path d="M17.5 3.75H20.5C20.9142 3.75 21.25 4.08579 21.25 4.5V19.5C21.25 19.9142 20.9142 20.25 20.5 20.25H17.5C17.0858 20.25 16.75 19.9142 16.75 19.5V4.5C16.75 4.08579 17.0858 3.75 17.5 3.75Z" stroke="#1E1E1E" stroke-width="1.5"/>
<path d="M13 7.5H10C9.17157 7.5 8.5 8.17157 8.5 9V19.5C8.5 20.3284 9.17157 21 10 21H13C13.8284 21 14.5 20.3284 14.5 19.5V9C14.5 8.17157 13.8284 7.5 13 7.5Z" fill="#1E1E1E"/>
<path d="M5.5 12H2.5C1.67157 12 1 12.6716 1 13.5V19.5C1 20.3284 1.67157 21 2.5 21H5.5C6.32843 21 7 20.3284 7 19.5V13.5C7 12.6716 6.32843 12 5.5 12Z" fill="#1E1E1E"/>
</svg>
