<svg width="24" height="24" viewBox="0 0 24 24" fill="none" xmlns="http://www.w3.org/2000/svg">
<path d="M17.5 3.75H20.5C20.9142 3.75 21.25 4.08579 21.25 4.5V19.5C21.25 19.9142 20.9142 20.25 20.5 20.25H17.5C17.0858 20.25 16.75 19.9142 16.75 19.5V4.5C16.75 4.08579 17.0858 3.75 17.5 3.75Z" stroke="#1E1E1E" stroke-width="1.5"/>
<path d="M10 8.25H13C13.4142 8.25 13.75 8.58579 13.75 9V19.5C13.75 19.9142 13.4142 20.25 13 20.25H10C9.58579 20.25 9.25 19.9142 9.25 19.5V9C9.25 8.58579 9.58579 8.25 10 8.25Z" stroke="#1E1E1E" stroke-width="1.5"/>
<path d="M5.5 12H2.5C1.67157 12 1 12.6716 1 13.5V19.5C1 20.3284 1.67157 21 2.5 21H5.5C6.32843 21 7 20.3284 7 19.5V13.5C7 12.6716 6.32843 12 5.5 12Z" fill="#1E1E1E"/>
</svg>
