<svg width="50" height="50" viewBox="0 0 50 50" fill="none" xmlns="http://www.w3.org/2000/svg">
<rect width="50" height="50" fill="white"/>
<path fill-rule="evenodd" clip-rule="evenodd" d="M24.0675 15.3293C21.5035 12.6573 17.1857 12.6191 14.3846 15.3558C14.3757 15.3645 14.3667 15.373 14.3576 15.3814C11.64 17.8706 11.5998 22.0366 14.3846 24.7573L14.3919 24.7645L24.9061 35.2204L35.6154 24.7573C35.6242 24.7487 35.6333 24.7401 35.6424 24.7318C38.36 22.2426 38.4002 18.0766 35.6154 15.3558C32.8293 12.6338 28.4902 12.6338 25.7041 15.3558C25.484 15.5708 25.1875 15.6889 24.8803 15.684C24.5731 15.679 24.2806 15.5514 24.0675 15.3293ZM24.9198 12.9772C21.392 10.1058 16.1844 10.379 12.7876 13.6852C9.05204 17.1207 9.09529 22.8168 12.7705 26.4113C12.7718 26.4126 12.773 26.4138 12.7743 26.415L24.0865 37.6645C24.5335 38.109 25.2532 38.1122 25.7041 37.6717L37.2128 26.4276C40.9492 22.9908 40.9045 17.2924 37.2257 13.6981C33.8086 10.3596 28.5955 10.1193 24.9198 12.9772Z" fill="#1E1E1E"/>
</svg>
