<svg width="14" height="16" viewBox="0 0 14 16" fill="none" xmlns="http://www.w3.org/2000/svg">
<path d="M7 0.5C8.79021 0.5 10.5071 1.21116 11.773 2.47703C13.0388 3.7429 13.75 5.45979 13.75 7.25C13.75 9.5555 12.493 11.4425 11.1685 12.7963C10.5068 13.4653 9.78469 14.0719 9.0115 14.6083L8.692 14.8258L8.542 14.9255L8.25925 15.1055L8.00725 15.2593L7.69525 15.4408C7.48348 15.5616 7.24384 15.6252 7 15.6252C6.75616 15.6252 6.51652 15.5616 6.30475 15.4408L5.99275 15.2593L5.60275 15.0192L5.45875 14.9255L5.15125 14.7208C4.31712 14.1564 3.54018 13.5118 2.8315 12.7963C1.507 11.4418 0.25 9.5555 0.25 7.25C0.25 5.45979 0.961159 3.7429 2.22703 2.47703C3.4929 1.21116 5.20979 0.5 7 0.5ZM7 5C6.70453 5 6.41194 5.0582 6.13896 5.17127C5.86598 5.28434 5.61794 5.45008 5.40901 5.65901C5.20008 5.86794 5.03434 6.11598 4.92127 6.38896C4.8082 6.66194 4.75 6.95453 4.75 7.25C4.75 7.54547 4.8082 7.83806 4.92127 8.11104C5.03434 8.38402 5.20008 8.63206 5.40901 8.84099C5.61794 9.04992 5.86598 9.21566 6.13896 9.32873C6.41194 9.4418 6.70453 9.5 7 9.5C7.59674 9.5 8.16903 9.26295 8.59099 8.84099C9.01295 8.41903 9.25 7.84674 9.25 7.25C9.25 6.65326 9.01295 6.08097 8.59099 5.65901C8.16903 5.23705 7.59674 5 7 5Z" fill="#1E1E1E" fill-opacity="0.5"/>
</svg>
