<svg width="24" height="24" viewBox="0 0 24 24" fill="none" xmlns="http://www.w3.org/2000/svg">
<path d="M9.4 21C7.16 21 6.04 21 5.184 20.564C4.43139 20.1805 3.81949 19.5686 3.436 18.816C3 17.96 3 16.84 3 14.6M21 14.6C21 16.84 21 17.96 20.564 18.816C20.1805 19.5686 19.5686 20.1805 18.816 20.564C17.96 21 16.84 21 14.6 21M14.6 3C16.84 3 17.96 3 18.816 3.436C19.5686 3.81949 20.1805 4.43139 20.564 5.184C21 6.04 21 7.16 21 9.4M9.4 3C7.16 3 6.04 3 5.184 3.436C4.43139 3.81949 3.81949 4.43139 3.436 5.184C3 6.04 3 7.16 3 9.4" stroke="#1E1E1E" stroke-width="1.5" stroke-linecap="round" stroke-linejoin="round"/>
</svg>
