<svg width="24" height="24" viewBox="0 0 24 24" fill="none" xmlns="http://www.w3.org/2000/svg">
<path d="M4.92857 21H16.5C17.0115 21 17.502 20.7916 17.8637 20.4207C18.2254 20.0497 18.4286 19.5466 18.4286 19.022V12.4286C18.4286 12.2537 18.3608 12.086 18.2403 11.9624C18.1197 11.8387 17.9562 11.7693 17.7857 11.7693C17.6152 11.7693 17.4517 11.8387 17.3311 11.9624C17.2106 12.086 17.1429 12.2537 17.1429 12.4286V19.022C17.1429 19.1969 17.0751 19.3646 16.9546 19.4882C16.834 19.6119 16.6705 19.6814 16.5 19.6814H4.92857C4.75808 19.6814 4.59456 19.6119 4.474 19.4882C4.35344 19.3646 4.28571 19.1969 4.28571 19.022V5.8352C4.28571 5.66033 4.35344 5.49263 4.474 5.36898C4.59456 5.24533 4.75808 5.17586 4.92857 5.17586H12.6429C12.8134 5.17586 12.9769 5.10639 13.0974 4.98274C13.218 4.85909 13.2857 4.69139 13.2857 4.51652C13.2857 4.34165 13.218 4.17394 13.0974 4.05029C12.9769 3.92664 12.8134 3.85718 12.6429 3.85718H4.92857C4.41708 3.85718 3.92654 4.06558 3.56487 4.43653C3.20319 4.80748 3 5.3106 3 5.8352V19.022C3 19.5466 3.20319 20.0497 3.56487 20.4207C3.92654 20.7916 4.41708 21 4.92857 21Z" fill="#1E1E1E"/>
<path d="M18.4644 3.00001C18.1312 2.9991 17.8012 3.06046 17.4934 3.18052C17.1856 3.30059 16.9062 3.47697 16.6714 3.69944L7.94697 11.9099C7.8746 11.9786 7.81998 12.062 7.78735 12.1537L6.46265 15.8939C6.4295 15.9876 6.42047 16.0873 6.43629 16.1849C6.4521 16.2825 6.49232 16.3752 6.55363 16.4553C6.61494 16.5354 6.69559 16.6006 6.78894 16.6457C6.88229 16.6907 6.98566 16.7142 7.09056 16.7143C7.16167 16.7142 7.23232 16.7035 7.29986 16.6825L11.274 15.4357C11.3716 15.4051 11.4602 15.3534 11.5329 15.2849L20.2574 7.07377C20.612 6.74004 20.8536 6.31483 20.9514 5.8519C21.0493 5.38898 20.999 4.90914 20.8071 4.47307C20.6152 4.037 20.2902 3.6643 19.8732 3.40209C19.4562 3.13989 18.9659 2.99996 18.4644 3.00001ZM19.3208 6.19294L10.7103 14.2968L8.13773 15.1054L8.99415 12.6873L17.608 4.58339C17.7773 4.42437 17.9928 4.31608 18.2274 4.27216C18.462 4.22824 18.7051 4.25065 18.9262 4.33659C19.1473 4.42252 19.3364 4.56811 19.4696 4.75503C19.6029 4.94194 19.6745 5.16181 19.6752 5.38692C19.6756 5.53663 19.6445 5.68494 19.5837 5.82328C19.5228 5.96162 19.4335 6.08726 19.3208 6.19294Z" fill="#1E1E1E"/>
</svg>
