<svg width="24" height="24" viewBox="0 0 24 24" fill="none" xmlns="http://www.w3.org/2000/svg">
<path d="M13.4615 2.42438C13.4615 3.83418 13.4439 4.9285 13.4439 5.92361C13.4439 6.38275 13.3982 6.96972 14.1605 7.83124C14.7482 8.49546 15.5525 8.63318 15.8735 8.63318C16.9045 8.63318 17.9671 8.63318 19.4605 8.63318" stroke="#1E1E1E" stroke-width="1.5"/>
<path d="M4.54004 17.976V6.57554C4.55784 6.08521 4.67207 5.60319 4.87621 5.15702C5.08035 4.71085 5.37041 4.30928 5.7298 3.97524C6.08919 3.6412 6.51087 3.38125 6.97076 3.21023C7.43064 3.03921 7.91972 2.96049 8.41004 2.97854L14.2176 3.06651L19.04 7.64528V17.976" stroke="#1E1E1E" stroke-width="1.5" stroke-linecap="round" stroke-linejoin="round"/>
<path d="M19.04 17.9761C19.0222 18.4664 18.908 18.9484 18.7039 19.3946C18.4997 19.8408 18.2097 20.2424 17.8503 20.5764C17.4909 20.9104 17.0692 21.1704 16.6093 21.3414C16.1494 21.5124 15.6604 21.5911 15.17 21.5731H8.41004C7.42014 21.6082 6.45673 21.2492 5.7312 20.5749C5.00568 19.9005 4.57729 18.9659 4.54004 17.9761" stroke="#1E1E1E" stroke-width="1.5" stroke-linecap="round" stroke-linejoin="round"/>
<path d="M8.54004 10.5302L11.8841 10.5302" stroke="#1E1E1E" stroke-width="1.5" stroke-linecap="round"/>
<path d="M8.54004 15.5302L13.873 15.5302" stroke="#1E1E1E" stroke-width="1.5" stroke-linecap="round"/>
</svg>
