<svg width="24" height="24" viewBox="0 0 24 24" fill="none" xmlns="http://www.w3.org/2000/svg">
<path d="M10.94 18.339L7.51 20.887C7.26537 21.0785 6.9732 21.1997 6.66487 21.2376C6.35654 21.2756 6.0437 21.2288 5.75995 21.1023C5.4762 20.9759 5.23225 20.7745 5.05432 20.5199C4.87638 20.2652 4.77118 19.9669 4.75 19.657V6.34999C4.7678 5.85966 4.88203 5.37764 5.08617 4.93147C5.29031 4.4853 5.58037 4.08372 5.93976 3.74968C6.29915 3.41565 6.72083 3.15569 7.18072 2.98468C7.6406 2.81366 8.12968 2.73493 8.62 2.75299H15.38C16.3699 2.71786 17.3333 3.07685 18.0588 3.7512C18.7844 4.42554 19.2128 5.36017 19.25 6.34999V19.659C19.2293 19.9692 19.1244 20.2678 18.9465 20.5227C18.7686 20.7777 18.5245 20.9792 18.2406 21.1057C17.9566 21.2321 17.6435 21.2787 17.335 21.2403C17.0265 21.202 16.7344 21.0801 16.49 20.888L13.06 18.34C12.7521 18.1156 12.381 17.9948 12 17.9948C11.619 17.9948 11.2479 18.1146 10.94 18.339Z" stroke="#1E1E1E" stroke-width="1.5" stroke-linecap="round" stroke-linejoin="round"/>
</svg>
