<svg width="50" height="50" viewBox="0 0 50 50" fill="none" xmlns="http://www.w3.org/2000/svg">
<path d="M40 38.431L31.62 30.051C33.6338 27.6334 34.638 24.5325 34.4237 21.3934C34.2094 18.2543 32.7932 15.3187 30.4696 13.1972C28.146 11.0757 25.0939 9.93168 21.9483 10.0032C18.8027 10.0746 15.8058 11.3561 13.5809 13.5809C11.3561 15.8058 10.0746 18.8027 10.0032 21.9483C9.93168 25.0939 11.0757 28.146 13.1972 30.4696C15.3187 32.7932 18.2543 34.2094 21.3934 34.4237C24.5325 34.638 27.6334 33.6338 30.051 31.62L38.431 40L40 38.431ZM12.259 22.2457C12.259 20.2705 12.8447 18.3397 13.942 16.6974C15.0394 15.0551 16.5991 13.775 18.424 13.0192C20.2488 12.2633 22.2568 12.0655 24.1941 12.4509C26.1313 12.8362 27.9108 13.7873 29.3075 15.184C30.7041 16.5807 31.6553 18.3602 32.0406 20.2974C32.426 22.2347 32.2282 24.2427 31.4723 26.0675C30.7164 27.8924 29.4364 29.4521 27.7941 30.5494C26.1518 31.6468 24.2209 32.2325 22.2457 32.2325C19.598 32.2296 17.0595 31.1765 15.1873 29.3042C13.315 27.432 12.2619 24.8935 12.259 22.2457Z" fill="#1E1E1E"/>
</svg>
