<svg width="36" height="36" viewBox="0 0 36 36" fill="none" xmlns="http://www.w3.org/2000/svg">
<path d="M18 23C18.5304 23 19.0391 23.2107 19.4142 23.5858C19.7893 23.9609 20 24.4696 20 25C20 25.5304 19.7893 26.0391 19.4142 26.4142C19.0391 26.7893 18.5304 27 18 27C17.4696 27 16.9609 26.7893 16.5858 26.4142C16.2107 26.0391 16 25.5304 16 25C16 24.4696 16.2107 23.9609 16.5858 23.5858C16.9609 23.2107 17.4696 23 18 23ZM18 16C18.5304 16 19.0391 16.2107 19.4142 16.5858C19.7893 16.9609 20 17.4696 20 18C20 18.5304 19.7893 19.0391 19.4142 19.4142C19.0391 19.7893 18.5304 20 18 20C17.4696 20 16.9609 19.7893 16.5858 19.4142C16.2107 19.0391 16 18.5304 16 18C16 17.4696 16.2107 16.9609 16.5858 16.5858C16.9609 16.2107 17.4696 16 18 16ZM18 9C18.5304 9 19.0391 9.21071 19.4142 9.58579C19.7893 9.96086 20 10.4696 20 11C20 11.5304 19.7893 12.0391 19.4142 12.4142C19.0391 12.7893 18.5304 13 18 13C17.4696 13 16.9609 12.7893 16.5858 12.4142C16.2107 12.0391 16 11.5304 16 11C16 10.4696 16.2107 9.96086 16.5858 9.58579C16.9609 9.21071 17.4696 9 18 9Z" fill="#1E1E1E"/>
</svg>
