<svg width="24" height="24" viewBox="0 0 24 24" fill="none" xmlns="http://www.w3.org/2000/svg">
<path d="M21.8182 0H2.18182C0.976364 0 0 0.976364 0 2.18182V21.8182C0 23.0236 0.976364 24 2.18182 24H21.8182C23.0236 24 24 23.0236 24 21.8182V2.18182C24 0.976364 23.0236 0 21.8182 0ZM7.58618 18.0273C7.58618 18.916 6.86577 19.6364 5.97709 19.6364C5.08841 19.6364 4.368 18.9159 4.368 18.0273V10.8905C4.368 10.0019 5.08841 9.28146 5.97709 9.28146C6.86577 9.28146 7.58618 10.0019 7.58618 10.8905V18.0273ZM5.94436 7.80109C4.90691 7.80109 4.068 6.96 4.068 5.92473C4.068 4.88945 4.908 4.04945 5.94436 4.04945C6.97855 4.04945 7.81964 4.89055 7.81964 5.92473C7.81964 6.96 6.97855 7.80109 5.94436 7.80109ZM19.6407 18.0284C19.6407 18.9164 18.9208 19.6364 18.0327 19.6364C17.1447 19.6364 16.4247 18.9164 16.4247 18.0284V14.6007C16.4247 13.3996 16.4029 11.8549 14.7524 11.8549C13.0778 11.8549 12.8204 13.1629 12.8204 14.5135V18.0284C12.8204 18.9164 12.1004 19.6364 11.2124 19.6364C10.3243 19.6364 9.60436 18.9164 9.60436 18.0284V10.8251C9.60436 9.97256 10.2955 9.28146 11.148 9.28146H11.9842C12.3749 9.28146 12.6916 9.59819 12.6916 9.98891V10.6691C12.6916 10.6842 12.7038 10.6964 12.7189 10.6964C12.729 10.6964 12.7381 10.6909 12.7429 10.682C13.1774 9.87248 14.2237 9.024 15.78 9.024C19.0385 9.024 19.6407 11.1687 19.6407 13.9571V18.0284Z" fill="#1E1E1E"/>
</svg>
