<svg width="34" height="24" viewBox="0 0 34 24" fill="none" xmlns="http://www.w3.org/2000/svg">
<path d="M29.0401 2.35075C28.9195 2.19128 28.7583 2.06724 28.5727 1.99193L28.0433 1.77633C26.026 0.954576 24.5693 0.360961 22.836 0.0368346C21.7941 -0.158084 20.6701 0.434793 20.0948 1.47879C19.1461 1.39093 18.1426 1.36139 17.0268 1.39019C15.868 1.36287 14.8557 1.39019 13.9055 1.47879C13.3391 0.451775 12.2188 -0.126336 11.1754 0.0671063C9.30826 0.415597 7.77092 1.04022 5.42757 1.99119C5.24196 2.0665 5.08076 2.19054 4.96023 2.35002C1.02407 7.55892 -0.544327 13.2116 0.165556 19.6298C0.204008 19.9732 0.399965 20.2788 0.69649 20.4575C3.32306 22.0353 5.59838 23.1177 7.85818 23.8627C8.94814 24.2222 10.1586 23.8125 10.8064 22.8681L11.8165 21.3922C13.4773 21.8109 15.2084 22.039 17.0009 22.073C18.7482 22.0397 20.4719 21.8101 22.1342 21.3893L23.1991 22.9006C23.6952 23.6057 24.4828 24 25.3073 24C25.5794 24 25.8552 23.9572 26.1258 23.8678C28.3901 23.1229 30.6706 22.039 33.3038 20.4575C33.5996 20.2796 33.7963 19.9732 33.8347 19.6298C34.5439 13.2108 32.9755 7.55818 29.0401 2.35075ZM11.4409 15.479C10.0167 15.479 8.84462 13.9809 8.84462 12.1602C8.84462 10.3395 10.0167 8.84139 11.4409 8.84139C12.8651 8.84139 14.0371 10.3395 14.0371 12.1602C14.0371 13.9809 12.8651 15.479 11.4409 15.479ZM21.7933 15.4989C20.3824 15.4989 19.2215 13.992 19.2215 12.1602C19.2215 10.3284 20.3824 8.82146 21.7933 8.82146C23.2042 8.82146 24.3652 10.3284 24.3652 12.1602C24.3652 13.992 23.2042 15.4989 21.7933 15.4989Z" fill="#1E1E1E"/>
</svg>
