<svg width="24" height="24" viewBox="0 0 24 24" fill="none" xmlns="http://www.w3.org/2000/svg">
<path d="M9.404 6.65067L16.912 17.3493H14.916L7.42133 6.65067H9.404ZM24 5.33333V18.6667C24 21.612 21.612 24 18.6667 24H5.33333C2.388 24 0 21.612 0 18.6667V5.33333C0 2.388 2.388 0 5.33333 0H18.6667C21.612 0 24 2.388 24 5.33333ZM19.384 18.6667L13.8027 10.68L18.3653 5.33333H16.6173L13.012 9.54667L10.0693 5.33333H4.936L10.1907 12.844L5.208 18.6667H6.98533L10.9867 13.9787L14.264 18.6667H19.384Z" fill="#1E1E1E"/>
</svg>
