<svg width="25" height="25" viewBox="0 0 25 25" fill="none" xmlns="http://www.w3.org/2000/svg">
<path d="M24.9973 1.01173C24.9973 0.880026 24.9649 0.757105 24.9196 0.641615C24.9169 0.635536 24.9149 0.629458 24.9122 0.623379C24.8602 0.500459 24.7886 0.390373 24.6961 0.29852L24.6947 0.296494C24.6934 0.295143 24.692 0.295144 24.6907 0.293793C24.6468 0.250568 24.6022 0.207343 24.5509 0.172899C24.5043 0.141156 24.4496 0.122921 24.3969 0.0992822C24.3759 0.0898269 24.3564 0.0776695 24.3347 0.0695649C24.2247 0.0283665 24.1085 0 23.9835 0H15.7837C15.2245 0 14.7706 0.453182 14.7706 1.01308C14.7706 1.57297 15.2245 2.02615 15.7837 2.02615H21.5326L14.2425 9.31624C13.8467 9.71202 13.8467 10.3536 14.2425 10.7487C14.4404 10.9466 14.6997 11.0452 14.9591 11.0452C15.2184 11.0452 15.4778 10.9466 15.6757 10.7487L22.9725 3.45189L22.9738 9.21628C22.9738 9.7755 23.4277 10.2294 23.9869 10.2294C24.5468 10.2294 25 9.7755 25 9.21628L24.9973 1.01173ZM9.323 14.2492L2.02683 21.5468L2.02615 15.7824C2.02615 15.2225 1.57229 14.7693 1.01308 14.7693C0.453182 14.7693 0 15.2231 0 15.7824L0.00135131 23.9856C0.00135131 24.0558 0.00877971 24.124 0.021612 24.1902C0.0310674 24.2368 0.0574075 24.2767 0.0729413 24.3206C0.0823967 24.3483 0.0918517 24.3739 0.104009 24.4003C0.147909 24.4968 0.205317 24.5826 0.276232 24.6596C0.287714 24.6731 0.291091 24.6893 0.303923 24.7015C0.310002 24.7076 0.318105 24.7089 0.324184 24.715C0.408607 24.7954 0.505187 24.8602 0.613924 24.9075C0.62473 24.9122 0.634186 24.9217 0.644993 24.925C0.759132 24.9703 0.882726 24.998 1.01308 24.998H9.21426C9.77415 24.998 10.2273 24.5441 10.2273 23.9849C10.2273 23.4257 9.77415 22.9718 9.21426 22.9718H3.46539L10.7548 15.6804C11.1506 15.2846 11.1506 14.6437 10.7548 14.2479C10.359 13.8521 9.71809 13.8535 9.323 14.2492Z" fill="#1E1E1E"/>
</svg>
