<svg width="20" height="20" viewBox="0 0 20 20" fill="none" xmlns="http://www.w3.org/2000/svg">
<path d="M7.4 19C5.16 19 4.04 19 3.184 18.564C2.43139 18.1805 1.81949 17.5686 1.436 16.816C1 15.96 1 14.84 1 12.6M19 12.6C19 14.84 19 15.96 18.564 16.816C18.1805 17.5686 17.5686 18.1805 16.816 18.564C15.96 19 14.84 19 12.6 19M12.6 1C14.84 1 15.96 1 16.816 1.436C17.5686 1.81949 18.1805 2.43139 18.564 3.184C19 4.04 19 5.16 19 7.4M7.4 1C5.16 1 4.04 1 3.184 1.436C2.43139 1.81949 1.81949 2.43139 1.436 3.184C1 4.04 1 5.16 1 7.4" stroke="white" stroke-width="1.5" stroke-linecap="round" stroke-linejoin="round"/>
</svg>
