<svg width="21" height="21" viewBox="0 0 21 21" fill="none" xmlns="http://www.w3.org/2000/svg">
<path d="M5.78422 8.58851C6.49014 9.86191 7.30375 11.084 8.36007 12.1985C9.41981 13.3197 10.7376 14.3401 12.4435 15.2119C12.57 15.2734 12.6896 15.2734 12.7973 15.2307C12.9597 15.1691 13.1255 15.0341 13.2878 14.8717C13.4143 14.7452 13.5716 14.5436 13.7357 14.3231C14.392 13.4599 15.2039 12.3882 16.3508 12.9249C16.3765 12.9369 16.3953 12.9505 16.4209 12.9608L20.2462 15.1606C20.2582 15.1674 20.2719 15.1794 20.2821 15.1862C20.7863 15.5332 20.9949 16.0682 21 16.675C21 17.292 20.7727 17.986 20.4394 18.5723C19.9984 19.3466 19.3489 19.8593 18.6002 20.1978C17.8874 20.5259 17.0944 20.702 16.332 20.8148C15.1356 20.9909 14.0143 20.878 12.8674 20.5259C11.7461 20.179 10.6163 19.6064 9.3822 18.844L9.29161 18.7859C8.72585 18.4321 8.11394 18.0544 7.51399 17.6082C5.3193 15.9503 3.08189 13.5556 1.6239 10.9199C0.401782 8.70816 -0.264827 6.32033 0.0992438 4.04531C0.300936 2.79756 0.835932 1.66262 1.76918 0.913962C2.58279 0.257609 3.67842 -0.101334 5.0971 0.0251503C5.25948 0.0371151 5.40477 0.131124 5.48168 0.271283L7.93446 4.41793C8.29341 4.88285 8.33785 5.34435 8.14128 5.80585C7.9789 6.18359 7.65073 6.53228 7.2029 6.85704C7.07129 6.96985 6.91404 7.08437 6.74824 7.20402C6.19957 7.60227 5.57569 8.06206 5.78935 8.60219L5.78422 8.58851Z" fill="#1E1E1E"/>
</svg>
