<svg width="24" height="24" viewBox="0 0 24 24" fill="none" xmlns="http://www.w3.org/2000/svg">
<path d="M5.25 4.5C4.25544 4.5 3.30161 4.89509 2.59835 5.59835C1.89509 6.30161 1.5 7.25544 1.5 8.25V15.75C1.5 16.7446 1.89509 17.6984 2.59835 18.4017C3.30161 19.1049 4.25544 19.5 5.25 19.5H12.75C13.7446 19.5 14.6984 19.1049 15.4017 18.4017C16.1049 17.6984 16.5 16.7446 16.5 15.75V15.5595L19.5525 17.667C19.8338 17.8612 20.1629 17.9747 20.5041 17.9954C20.8453 18.0161 21.1857 17.9431 21.4884 17.7843C21.7911 17.6255 22.0447 17.387 22.2217 17.0946C22.3986 16.8021 22.4923 16.4668 22.4925 16.125V7.878C22.4923 7.53617 22.3986 7.2009 22.2217 6.90844C22.0447 6.61599 21.7911 6.37748 21.4884 6.21871C21.1857 6.05993 20.8453 5.98694 20.5041 6.00761C20.1629 6.02828 19.8338 6.14184 19.5525 6.336L16.5 8.4435V8.25C16.5 7.25544 16.1049 6.30161 15.4017 5.59835C14.6984 4.89509 13.7446 4.5 12.75 4.5H5.25ZM16.5 10.266L20.406 7.569C20.4623 7.53014 20.5282 7.50742 20.5965 7.50331C20.6648 7.4992 20.7329 7.51385 20.7934 7.54568C20.854 7.57751 20.9047 7.6253 20.9401 7.68387C20.9754 7.74245 20.9941 7.80958 20.994 7.878V16.125C20.9938 16.1933 20.9749 16.2602 20.9395 16.3186C20.904 16.377 20.8533 16.4245 20.7928 16.4562C20.7323 16.4878 20.6643 16.5023 20.5961 16.4982C20.5279 16.494 20.4622 16.4713 20.406 16.4325L16.5 13.737V10.266ZM3 8.25C3 7.65326 3.23705 7.08097 3.65901 6.65901C4.08097 6.23705 4.65326 6 5.25 6H12.75C13.3467 6 13.919 6.23705 14.341 6.65901C14.7629 7.08097 15 7.65326 15 8.25V15.75C15 16.3467 14.7629 16.919 14.341 17.341C13.919 17.7629 13.3467 18 12.75 18H5.25C4.65326 18 4.08097 17.7629 3.65901 17.341C3.23705 16.919 3 16.3467 3 15.75V8.25Z" fill="#1E1E1E"/>
</svg>
