<svg width="24" height="24" viewBox="0 0 24 24" fill="none" xmlns="http://www.w3.org/2000/svg">
<path d="M21.1448 8.09402C21.1448 8.09402 20.9565 6.68153 20.3915 6.07618C19.701 5.26905 18.8849 5.26905 18.5082 5.20178C15.8716 5 11.9166 5 11.9166 5C11.9166 5 7.96162 5 5.32498 5.20178C4.94831 5.26905 4.13221 5.26905 3.44166 6.07618C2.87666 6.68153 2.68833 8.09402 2.68833 8.09402C2.68833 8.09402 2.5 9.70829 2.5 11.3226V12.8023C2.5 14.4166 2.68833 16.0981 2.68833 16.0981C2.68833 16.0981 2.87666 17.5106 3.44166 18.116C4.13221 18.9231 5.07387 18.9231 5.51331 18.9904C7.01996 19.0576 11.9166 19.1249 11.9166 19.1249C11.9166 19.1249 15.8716 19.1249 18.5082 18.9231C18.8849 18.8558 19.701 18.8558 20.3915 18.0487C20.9565 17.4433 21.1448 16.0309 21.1448 16.0309C21.1448 16.0309 21.3332 14.4166 21.3332 12.8023V11.3226C21.3332 9.70829 21.1448 8.09402 21.1448 8.09402Z" stroke="#1E1E1E" stroke-width="1.5"/>
<path d="M10.7402 10.8853V13.2395L13.0944 12.0624L10.7402 10.8853Z" fill="#1E1E1E" stroke="#1E1E1E" stroke-width="1.5"/>
</svg>
